<?xml version="1.0" encoding="utf-8"?>
<!-- Generator: Adobe Illustrator 15.1.0, SVG Export Plug-In . SVG Version: 6.00 Build 0)  -->
<!DOCTYPE svg PUBLIC "-//W3C//DTD SVG 1.1//EN" "http://www.w3.org/Graphics/SVG/1.1/DTD/svg11.dtd">
<svg version="1.1"
	 id="Layer_1" xmlns:dc="http://purl.org/dc/elements/1.1/" xmlns:rdf="http://www.w3.org/1999/02/22-rdf-syntax-ns#" xmlns:cc="http://creativecommons.org/ns#" xmlns:sodipodi="http://sodipodi.sourceforge.net/DTD/sodipodi-0.dtd" xmlns:inkscape="http://www.inkscape.org/namespaces/inkscape" xmlns:svg="http://www.w3.org/2000/svg"
	 xmlns="http://www.w3.org/2000/svg" xmlns:xlink="http://www.w3.org/1999/xlink" x="0px" y="0px" width="586px" height="461px"
	 viewBox="0 0 586 461" enable-background="new 0 0 586 461" xml:space="preserve">
	<path id="up" stroke="#000000" stroke-width="10" stroke-miterlimit="10" d="M102.001,69.543
		c123.415,0.052,246.835-0.112,370.248,0.07c20.723,0.582,25.953,32.892,6.419,40.081c-14.521,3.308-29.817,0.928-44.681,1.647
		c-111.419-0.054-222.84,0.104-334.257-0.083c-20.704-0.615-25.929-32.898-6.395-40.079C96.065,70.02,99.041,69.498,102.001,69.543z
		"/>
	<path id="midle" stroke="#000000" stroke-width="10" stroke-miterlimit="10" d="M102.001,201.531
		c123.415,0.052,246.835-0.112,370.248,0.07c20.723,0.582,25.953,32.892,6.419,40.081c-14.521,3.308-29.817,0.928-44.681,1.647
		c-111.419-0.054-222.84,0.104-334.257-0.083c-20.704-0.615-25.929-32.899-6.395-40.079
		C96.065,202.008,99.041,201.486,102.001,201.531z"/>
	<path id="down" stroke="#000000" stroke-width="10" stroke-miterlimit="10" d="M102.001,337.531
		c123.415,0.052,246.835-0.112,370.248,0.07c20.723,0.582,25.953,32.892,6.419,40.08c-14.521,3.308-29.817,0.928-44.681,1.647
		c-111.419-0.054-222.84,0.104-334.257-0.083c-20.704-0.615-25.929-32.898-6.395-40.079
		C96.065,338.008,99.041,337.486,102.001,337.531z"/>
</svg>
