<?xml version="1.0" encoding="utf-8"?>
<!-- Generator: Adobe Illustrator 15.1.0, SVG Export Plug-In . SVG Version: 6.00 Build 0)  -->
<!DOCTYPE svg PUBLIC "-//W3C//DTD SVG 1.1//EN" "http://www.w3.org/Graphics/SVG/1.1/DTD/svg11.dtd">
<svg version="1.1" id="Layer_1" xmlns="http://www.w3.org/2000/svg" xmlns:xlink="http://www.w3.org/1999/xlink" x="0px" y="0px"
	 width="612px" height="575.5px" viewBox="0 0 612 575.5" enable-background="new 0 0 612 575.5" xml:space="preserve">
<g>
	<path d="M204.408,60.012c-4.896-19.584-11.016-31.824-11.016-31.824s-14.688,12.24-30.6,30.6
		c3.672,7.344,8.568,15.912,12.24,25.704C184.824,74.7,195.84,66.132,204.408,60.012z"/>
	<path d="M95.472,58.788c-15.912-19.584-30.6-30.6-30.6-30.6s-6.12,12.24-11.016,31.824c8.568,6.12,19.584,14.688,29.376,24.48
		C86.904,74.7,91.8,66.132,95.472,58.788z"/>
	<path d="M102.816,263.196C61.2,215.46,53.856,161.604,75.888,101.628C48.96,74.7,19.584,58.788,19.584,58.788
		C19.584,61.236-25.704,220.356,102.816,263.196z"/>
	<path d="M182.376,101.628c20.808,58.752,14.688,112.608-26.928,160.344c128.52-42.84,82.008-201.96,83.232-204.408
		C238.68,58.788,209.304,74.7,182.376,101.628z"/>
	<path d="M449.208,58.788c-15.912-19.584-30.6-30.6-30.6-30.6s-6.12,13.464-11.017,31.824c8.568,6.12,19.584,14.688,29.376,24.48
		C440.64,74.7,445.536,66.132,449.208,58.788z"/>
	<path d="M456.552,263.196c-41.616-47.736-47.735-101.592-26.928-160.344c-26.928-26.928-56.304-42.84-56.304-42.84
		C373.32,61.236,328.032,220.356,456.552,263.196z"/>
	<path d="M509.184,263.196c128.521-42.84,82.009-201.96,83.232-204.408c0,0-29.376,15.912-56.304,42.84
		C556.92,160.38,550.8,215.46,509.184,263.196z"/>
	<path d="M137.088,381.924V255.852c90.576-95.472-8.568-214.2-8.568-216.648c0,3.672-100.368,119.952-8.568,216.648v105.264
		c-13.464-62.424-95.472-66.096-99.144-68.544c1.224,1.224,9.792,115.056,100.368,101.592l0.074,128.461h17.188l-0.125-107.653
		c89.352,13.464,99.144-100.368,100.368-101.592C235.008,315.828,151.776,320.724,137.088,381.924z"/>
</g>
<path fill="none" stroke="#000000" stroke-width="5" stroke-miterlimit="10" d="M515.177,263.646"/>
<path d="M558.18,62.52c-4.896-19.584-11.016-31.824-11.016-31.824s-14.688,12.24-30.601,30.6c3.672,7.344,8.567,15.912,12.24,25.704
	C538.596,77.208,549.611,68.64,558.18,62.52z"/>
<path d="M374.58,295.08c1.224,1.224,9.791,115.056,100.367,101.592l0.074,128.461h17.188l-0.125-107.653
	c89.352,13.464,99.144-100.368,100.367-101.592c-3.672,2.448-86.904,7.345-101.592,68.544V258.359
	c90.576-95.472-8.568-214.2-8.568-216.647c0,3.672-100.367,119.952-8.567,216.647v105.265
	C460.26,301.199,378.252,297.527,374.58,295.08"/>
</svg>
