<?xml version="1.0" encoding="utf-8"?>
<!-- Generator: Adobe Illustrator 15.1.0, SVG Export Plug-In . SVG Version: 6.00 Build 0)  -->
<!DOCTYPE svg PUBLIC "-//W3C//DTD SVG 1.1//EN" "http://www.w3.org/Graphics/SVG/1.1/DTD/svg11.dtd">
<svg version="1.1"
	 id="Layer_1" xmlns:svg="http://www.w3.org/2000/svg" xmlns:inkscape="http://www.inkscape.org/namespaces/inkscape" xmlns:rdf="http://www.w3.org/1999/02/22-rdf-syntax-ns#" xmlns:cc="http://creativecommons.org/ns#" xmlns:sodipodi="http://sodipodi.sourceforge.net/DTD/sodipodi-0.dtd" xmlns:dc="http://purl.org/dc/elements/1.1/"
	 xmlns="http://www.w3.org/2000/svg" xmlns:xlink="http://www.w3.org/1999/xlink" x="0px" y="0px" width="586px" height="461px"
	 viewBox="0 0 586 461" enable-background="new 0 0 586 461" xml:space="preserve">
<path id="midle" stroke="#000000" stroke-width="10" stroke-miterlimit="10" d="M104.131,333.836
	c118.065-85.698,236.01-171.576,354.148-257.169c20.162-13.927,44.153,8.581,29.697,27.968
	c-11.944,12.766-27.973,21.466-41.768,32.375c-106.592,77.363-213.064,154.901-319.733,232.156
	c-20.164,13.885-44.134-8.604-29.672-27.985C98.733,338.349,101.273,335.855,104.131,333.836z"/>
<path id="midle_1_" stroke="#000000" stroke-width="10" stroke-miterlimit="10" d="M459.613,363.686
	C339.526,280.843,219.311,198.174,99.299,115.228c-19.839-14.382-6.592-44.494,16.499-37.309
	c16.012,7.019,29.548,19.241,44.424,28.623c108.41,74.794,216.945,149.417,325.278,224.32c19.801,14.397,6.564,44.482-16.523,37.29
	C465.664,367.275,462.468,365.709,459.613,363.686z"/>
</svg>
